# xmcd
#
# Track frame offsets:
#	150
#	16324
#	33715
#	48244
#	63471
#	81950
#	99197
#	114424
#	126681
#	139961
#	158794
#	176271
#	195152
#	212845
#
# Disc length: 3012 seconds
#
# Revision: 2
# Processed by: cddbd v1.5.2PL0 Copyright (c) Steve Scherf et al.
# Submitted via: audiograbber 1.83.01
#
DISCID=bd0bc20e
DTITLE=Star Disc - SD 133
DYEAR=1900
DGENRE=Karaoke
TTITLE0=Tim McGraw, - Do You Want Fries With That
TTITLE1=Faith Hill,  - Mississippi Girl
TTITLE2=Brooks and Dunn - Play Someting Country
TTITLE3=Lonestar - You're Like Coming Home
TTITLE4=Gary Allan,  - Best I Ever Had
TTITLE5=Lauren Lucas,  - The Carolina Kind, 
TTITLE6=Andy Griggs,  - This I Gotta See
TTITLE7=Billy Dean,  - This Is The Life
TTITLE8=Jace Everett,  - That's The Kind Of Love I'm In
TTITLE9=Rebecca Lynn Howard,  - No One Will Ever Love Me
TTITLE10=Dwight Yoakam,  - Intentional Heartache
TTITLE11=Little Big Town - Boondocks
TTITLE12=Chris Ledoux,  - The Ride, 
TTITLE13=Carrie Underwood,  - Inside Your Heaven
EXTD=
EXTT0=
EXTT1=
EXTT2=
EXTT3=
EXTT4=
EXTT5=
EXTT6=
EXTT7=
EXTT8=
EXTT9=
EXTT10=
EXTT11=
EXTT12=
EXTT13=
PLAYORDER=
